<?xml version="1.0" standalone="no"?>
<!DOCTYPE svg PUBLIC "-//W3C//DTD SVG 20010904//EN"
 "http://www.w3.org/TR/2001/REC-SVG-20010904/DTD/svg10.dtd">
<svg version="1.0" xmlns="http://www.w3.org/2000/svg"
 width="64.000000pt" height="64.000000pt" viewBox="0 0 64.000000 64.000000"
 preserveAspectRatio="xMidYMid meet">

<g transform="translate(0.000000,64.000000) scale(0.100000,-0.100000)"
fill="#000000" stroke="none">
<path d="M310 511 c-58 -27 -136 -62 -173 -79 -38 -17 -66 -36 -62 -41 7 -12
10 -11 163 58 61 27 112 46 112 42 0 -5 -36 -32 -80 -61 -51 -33 -77 -57 -71
-63 5 -5 29 4 62 25 30 19 60 38 67 42 8 5 15 -2 22 -18 5 -14 18 -34 28 -44
19 -19 17 -21 -88 -148 -67 -79 -105 -133 -99 -138 6 -6 12 -6 17 0 5 5 54 64
110 130 96 114 105 122 142 126 22 2 40 1 40 -2 0 -3 -20 -56 -45 -118 -47
-117 -52 -136 -34 -130 10 3 131 283 143 334 9 36 -10 90 -41 114 -41 32 -94
25 -213 -29z m205 -6 c33 -32 33 -78 0 -110 -13 -14 -34 -25 -47 -25 -17 0
-19 3 -10 12 7 7 12 16 12 20 0 14 -27 9 -40 -7 -18 -22 -28 -19 -45 15 -20
39 -19 62 6 94 28 36 89 37 124 1z"/>
</g>
</svg>
